<svg xmlns="http://www.w3.org/2000/svg" viewBox="0 0 400 300" fill="none">
  <defs>
    <linearGradient id="bgGrad" x1="0%" y1="0%" x2="100%" y2="100%">
      <stop offset="0%" style="stop-color:#1a1a2e"/>
      <stop offset="100%" style="stop-color:#16213e"/>
    </linearGradient>
    <linearGradient id="accentGrad" x1="0%" y1="0%" x2="100%" y2="0%">
      <stop offset="0%" style="stop-color:#6366f1"/>
      <stop offset="100%" style="stop-color:#8b5cf6"/>
    </linearGradient>
  </defs>

  <!-- Background -->
  <rect width="400" height="300" fill="url(#bgGrad)" rx="8"/>

  <!-- Browser Window -->
  <rect x="40" y="30" width="320" height="220" rx="8" fill="#0f172a" stroke="#334155" stroke-width="1"/>

  <!-- Browser Header -->
  <rect x="40" y="30" width="320" height="28" rx="8" fill="#1e293b"/>
  <rect x="40" y="50" width="320" height="8" fill="#1e293b"/>

  <!-- Browser Dots -->
  <circle cx="58" cy="44" r="5" fill="#ef4444"/>
  <circle cx="76" cy="44" r="5" fill="#eab308"/>
  <circle cx="94" cy="44" r="5" fill="#22c55e"/>

  <!-- URL Bar -->
  <rect x="115" y="38" width="180" height="12" rx="3" fill="#0f172a"/>
  <text x="125" y="47" font-family="monospace" font-size="7" fill="#64748b">landingpager.ai</text>

  <!-- Landing Page Content -->
  <!-- Hero Section -->
  <rect x="55" y="70" width="130" height="60" rx="4" fill="#1e293b"/>
  <rect x="65" y="80" width="80" height="8" rx="2" fill="url(#accentGrad)"/>
  <rect x="65" y="94" width="100" height="5" rx="1" fill="#475569"/>
  <rect x="65" y="103" width="90" height="5" rx="1" fill="#475569"/>
  <rect x="65" y="116" width="50" height="10" rx="3" fill="url(#accentGrad)"/>

  <!-- Components Panel -->
  <rect x="195" y="70" width="150" height="165" rx="4" fill="#1e293b"/>
  <text x="205" y="86" font-family="sans-serif" font-size="8" fill="#94a3b8" font-weight="bold">Components</text>

  <!-- Component Items -->
  <rect x="205" y="95" width="130" height="22" rx="3" fill="#0f172a" stroke="#334155" stroke-width="1"/>
  <rect x="212" y="102" width="8" height="8" rx="1" fill="#6366f1"/>
  <text x="226" y="109" font-family="sans-serif" font-size="7" fill="#e2e8f0">Hero Section</text>

  <rect x="205" y="122" width="130" height="22" rx="3" fill="#0f172a" stroke="#334155" stroke-width="1"/>
  <rect x="212" y="129" width="8" height="8" rx="1" fill="#8b5cf6"/>
  <text x="226" y="136" font-family="sans-serif" font-size="7" fill="#e2e8f0">Pricing Table</text>

  <rect x="205" y="149" width="130" height="22" rx="3" fill="#0f172a" stroke="#334155" stroke-width="1"/>
  <rect x="212" y="156" width="8" height="8" rx="1" fill="#a78bfa"/>
  <text x="226" y="163" font-family="sans-serif" font-size="7" fill="#e2e8f0">Testimonials</text>

  <rect x="205" y="176" width="130" height="22" rx="3" fill="#0f172a" stroke="#334155" stroke-width="1"/>
  <rect x="212" y="183" width="8" height="8" rx="1" fill="#c4b5fd"/>
  <text x="226" y="190" font-family="sans-serif" font-size="7" fill="#e2e8f0">Contact Form</text>

  <rect x="205" y="203" width="130" height="22" rx="3" fill="#0f172a" stroke="#334155" stroke-width="1"/>
  <rect x="212" y="210" width="8" height="8" rx="1" fill="#ddd6fe"/>
  <text x="226" y="217" font-family="sans-serif" font-size="7" fill="#e2e8f0">FAQ Section</text>

  <!-- Features Cards -->
  <rect x="55" y="140" width="60" height="45" rx="3" fill="#1e293b"/>
  <rect x="62" y="150" width="20" height="20" rx="10" fill="url(#accentGrad)" opacity="0.3"/>
  <rect x="68" y="156" width="8" height="8" fill="url(#accentGrad)"/>
  <rect x="62" y="175" width="45" height="4" rx="1" fill="#475569"/>

  <rect x="120" y="140" width="60" height="45" rx="3" fill="#1e293b"/>
  <rect x="127" y="150" width="20" height="20" rx="10" fill="url(#accentGrad)" opacity="0.3"/>
  <rect x="133" y="156" width="8" height="8" fill="url(#accentGrad)"/>
  <rect x="127" y="175" width="45" height="4" rx="1" fill="#475569"/>

  <!-- CTA Section -->
  <rect x="55" y="195" width="125" height="40" rx="4" fill="#1e293b"/>
  <rect x="65" y="205" width="80" height="6" rx="1" fill="#475569"/>
  <rect x="65" y="217" width="60" height="10" rx="3" fill="url(#accentGrad)"/>

  <!-- Drag indicator -->
  <path d="M175 115 L190 115" stroke="#6366f1" stroke-width="2" stroke-dasharray="4 2"/>
  <circle cx="190" cy="115" r="4" fill="#6366f1"/>

  <!-- AI Badge -->
  <rect x="310" y="260" width="70" height="20" rx="10" fill="url(#accentGrad)"/>
  <text x="325" y="274" font-family="sans-serif" font-size="9" fill="white" font-weight="bold">AI Powered</text>
</svg>
